<svg id="Layer_1" data-name="Layer 1" xmlns="http://www.w3.org/2000/svg" viewBox="0 0 155 43.6"><defs><style>.cls-1{fill:#fff;}</style></defs><path class="cls-1" d="M15.51,9l0,0L11.72,21.77,7.7,9H0V30.52H5.27v-.07S5.2,20,5.17,16.24L9.46,30.47l0,.05h3.66v-.05l4.31-14.24c0,3.76-.05,14.22-.05,14.22v.07h5.27V9Z"/><path class="cls-1" d="M32.46,17.58c2,0,2.56,1.44,2.65,2.78H29.82c.21-1.77,1.15-2.78,2.64-2.78m3,7.13-.08.26A2.65,2.65,0,0,1,32.7,27c-1.83,0-2.86-1.24-3-3.49H40.38v-1c0-5.3-2.94-8.6-7.66-8.6a8.14,8.14,0,0,0-8.35,8.48c0,5,3.27,8.42,8.15,8.42,3.88,0,6.71-2,7.75-5.36l.12-.4Z"/><path class="cls-1" d="M86.25,14.07a5.72,5.72,0,0,0-4.57,2,4.61,4.61,0,0,0-4.22-2,5,5,0,0,0-3.85,1.81V14.45h-6V30.52H74V20.39c0-.85.38-1.34,1-1.34s1,.22,1,1.43v10H82.5V20.87c0-1.17.41-1.76,1.23-1.76a1,1,0,0,1,.79.26,1.43,1.43,0,0,1,.26,1V30.52h6.39V19c0-3.19-1.74-4.94-4.92-4.94"/><path class="cls-1" d="M100.24,26.59c-.83,0-1.34-.76-1.34-1.95V20.1a1.4,1.4,0,0,1,1.37-1.53c1.13,0,1.7,1.31,1.7,3.89,0,1.88-.3,4.13-1.73,4.13m2.09-12.46a4.43,4.43,0,0,0-3.91,2.24V14.55H92.73V35.64H98.9V29a4.28,4.28,0,0,0,3.49,1.68c3.64,0,6.09-3.34,6.09-8.32s-2.42-8.24-6.15-8.24"/><path class="cls-1" d="M119.85,24.46a2.34,2.34,0,0,1-.57,1.67,2,2,0,0,1-1.54.57c-1.06,0-1.53-.4-1.53-1.31,0-1.24,1.33-2.11,3.64-2.42ZM126.37,30a6.4,6.4,0,0,1-.45-2.72v-7c0-4.43-2.09-6.15-7.45-6.15-4.75,0-7.47,1.62-8.32,4.95l-.06.22,5.81.58,0-.19A1.93,1.93,0,0,1,118.09,18c1.21,0,1.76.46,1.76,1.49v.31c-6.69.24-10.09,2.28-10.09,6.08,0,3,2.14,4.84,5.6,4.84A5.35,5.35,0,0,0,120,28.47a12.14,12.14,0,0,0,.26,1.69l0,.15h6.18Z"/><path class="cls-1" d="M130.54,15.72a8.22,8.22,0,0,0-3.07,6.56c0,5,3.29,8.45,8.18,8.45,2.76,0,7-2.6,7.3-6.31l0-.18-5.43-.51v.18c-.1,1.55-.76,2.55-1.67,2.55-1.33,0-1.85-1.2-1.85-4.3,0-2.53.52-3.77,1.59-3.77s1.46.67,1.73,2.48l0,.17,5.55-.49,0-.18c-.48-4-3.17-6.24-7.38-6.24a8,8,0,0,0-5,1.59"/><path class="cls-1" d="M151.78,9.58l-5.34.27s-.36,4.38-.38,4.7h-2.55v4.26h2.3v6.76c0,3.47,1.8,5.16,5.5,5.16a17,17,0,0,0,3.54-.42l.15,0V25.61l-.23.05a6.8,6.8,0,0,1-1.57.26c-.92,0-1.24-.29-1.24-1.19V18.81h2.86V14.55H152v-5Z"/><path class="cls-1" d="M62.29,0A3.34,3.34,0,0,0,59,3.37a3.31,3.31,0,1,0,6.61,0A3.38,3.38,0,0,0,62.29,0"/><rect class="cls-1" x="59.05" y="8.95" width="6.5" height="21.57"/><path class="cls-1" d="M67.64,10.83V14A50.6,50.6,0,0,1,91.2,1.62s-10.33.17-23.56,9.21"/><path class="cls-1" d="M49.55,26.65c-.51,0-2.08,0-2.08-4.25,0-1.6.26-4.29,2-4.29s2,1.33,2,2.43v3.57c0,1.47-.82,2.54-2,2.54M51.79,9v6.61A4.9,4.9,0,0,0,48.14,14c-3.76,0-6.3,3.41-6.3,8.48s2.5,8.35,6.36,8.35a4.71,4.71,0,0,0,3.84-2c0,.64,0,1.62,0,1.62h4.76V9Z"/><path class="cls-1" d="M50.84,31.85v-.32a4.1,4.1,0,0,1-2.87.69,10.26,10.26,0,0,1-2.27-.44c-2.61,3.36-5,7.65-7.62,11.82l11-5.15a23.68,23.68,0,0,1,3.07-6.6Z"/></svg>